name analog
datacolumns 19
datarows 50
range 0.5915 0.616
endheader
time	ground_force_vx	ground_force_vy	ground_force_vz	ground_force_px	ground_force_py	ground_force_pz	l_ground_force_vx	l_ground_force_vy	l_ground_force_vz	l_ground_force_px	l_ground_force_py	l_ground_force_pz	ground_torque_x	ground_torque_y	ground_torque_z	l_ground_torque_x	l_ground_torque_y	l_ground_torque_z
0.5915	-0.0	-0.0	-0.0	0.9212208986282348	-20.765522003173828	-915.7955322265624	-0.0	-0.0	-0.0	-0.0	-0.0	-0.0	-0.0	-0.0	-0.0	-0.0	-0.0	-0.0
0.592	-0.0	-0.0	-0.0	-2.2316887378692627	-18.181177139282227	-924.8624267578124	-0.0	-0.0	-0.0	-0.0	-0.0	-0.0	-0.0	-0.0	-0.0	-0.0	-0.0	-0.0
0.5925	-0.0	-0.0	-0.0	-5.769852638244629	-15.597820281982422	-931.4539184570312	-0.0	-0.0	-0.0	-0.0	-0.0	-0.0	-0.0	-0.0	-0.0	-0.0	-0.0	-0.0
0.593	-0.0	-0.0	-0.0	-8.387163162231445	-14.557049751281738	-939.3432006835938	-0.0	-0.0	-0.0	-0.0	-0.0	-0.0	-0.0	-0.0	-0.0	-0.0	-0.0	-0.0
0.5935	-0.0	-0.0	-0.0	-9.99170207977295	-12.953784942626951	-946.6400756835938	-0.0	-0.0	-0.0	-0.0	-0.0	-0.0	-0.0	-0.0	-0.0	-0.0	-0.0	-0.0
0.594	-0.0	-0.0	-0.0	-11.299968719482422	-12.507951736450195	-956.17578125	-0.0	-0.0	-0.0	-0.0	-0.0	-0.0	-0.0	-0.0	-0.0	-0.0	-0.0	-0.0
0.5945	-0.0	-0.0	-0.0	-12.013519287109377	-12.6264009475708	-964.2966918945312	-0.0	-0.0	-0.0	-0.0	-0.0	-0.0	-0.0	-0.0	-0.0	-0.0	-0.0	-0.0
0.595	-0.0	-0.0	-0.0	-11.954208374023438	-12.86525821685791	-971.3600463867188	-0.0	-0.0	-0.0	-0.0	-0.0	-0.0	-0.0	-0.0	-0.0	-0.0	-0.0	-0.0
0.5955	-0.0	-0.0	-0.0	-11.656418800354004	-12.864909172058104	-981.0169677734376	-0.0	-0.0	-0.0	-0.0	-0.0	-0.0	-0.0	-0.0	-0.0	-0.0	-0.0	-0.0
0.596	-0.0	-0.0	-0.0	-11.333135604858398	-13.19384765625	-984.0792846679688	-0.0	-0.0	-0.0	-0.0	-0.0	-0.0	-0.0	-0.0	-0.0	-0.0	-0.0	-0.0
0.5965	-0.0	-0.0	-0.0	-10.853265762329102	-13.251059532165527	-989.2529907226562	-0.0	-0.0	-0.0	-0.0	-0.0	-0.0	-0.0	-0.0	-0.0	-0.0	-0.0	-0.0
0.597	-0.0	-0.0	-0.0	-11.417726516723633	-13.875038146972656	-993.4903564453124	-0.0	-0.0	-0.0	-0.0	-0.0	-0.0	-0.0	-0.0	-0.0	-0.0	-0.0	-0.0
0.5975	-0.0	-0.0	-0.0	-12.33887004852295	-14.111834526062012	-996.4193725585938	-0.0	-0.0	-0.0	-0.0	-0.0	-0.0	-0.0	-0.0	-0.0	-0.0	-0.0	-0.0
0.598	-0.0	-0.0	-0.0	-14.306097030639648	-14.2025146484375	-1001.9524536132812	-0.0	-0.0	-0.0	-0.0	-0.0	-0.0	-0.0	-0.0	-0.0	-0.0	-0.0	-0.0
0.5985	-0.0	-0.0	-0.0	-16.205371856689453	-13.667864799499512	-1009.6332397460938	-0.0	-0.0	-0.0	-0.0	-0.0	-0.0	-0.0	-0.0	-0.0	-0.0	-0.0	-0.0
0.599	-0.0	-0.0	-0.0	-19.1201114654541	-12.3310546875	-1016.9281005859376	-0.0	-0.0	-0.0	-0.0	-0.0	-0.0	-0.0	-0.0	-0.0	-0.0	-0.0	-0.0
0.5995	-0.0	-0.0	-0.0	-21.591136932373047	-10.820335388183594	-1025.643310546875	-0.0	-0.0	-0.0	-0.0	-0.0	-0.0	-0.0	-0.0	-0.0	-0.0	-0.0	-0.0
0.6	-0.0	-0.0	-0.0	-23.37074089050293	-9.151524543762209	-1032.917724609375	-0.0	-0.0	-0.0	-0.0	-0.0	-0.0	-0.0	-0.0	-0.0	-0.0	-0.0	-0.0
0.6005	-0.0	-0.0	-0.0	-24.357051849365234	-8.320557594299316	-1038.8369140625	-0.0	-0.0	-0.0	-0.0	-0.0	-0.0	-0.0	-0.0	-0.0	-0.0	-0.0	-0.0
0.601	-0.0	-0.0	-0.0	-23.937225341796875	-7.449831485748291	-1042.256103515625	-0.0	-0.0	-0.0	-0.0	-0.0	-0.0	-0.0	-0.0	-0.0	-0.0	-0.0	-0.0
0.6015	-0.0	-0.0	-0.0	-23.04804801940918	-6.748197555541992	-1041.50390625	-0.0	-0.0	-0.0	-0.0	-0.0	-0.0	-0.0	-0.0	-0.0	-0.0	-0.0	-0.0
0.602	-0.0	-0.0	-0.0	-20.578947067260746	-5.5229172706604	-1041.2628173828125	-0.0	-0.0	-0.0	-0.0	-0.0	-0.0	-0.0	-0.0	-0.0	-0.0	-0.0	-0.0
0.6025	-0.0	-0.0	-0.0	-18.173660278320312	-3.7854208946228023	-1040.215087890625	-0.0	-0.0	-0.0	-0.0	-0.0	-0.0	-0.0	-0.0	-0.0	-0.0	-0.0	-0.0
0.603	-0.0	-0.0	-0.0	-15.733159065246582	-2.238924741744995	-1036.936279296875	-0.0	-0.0	-0.0	-0.0	-0.0	-0.0	-0.0	-0.0	-0.0	-0.0	-0.0	-0.0
0.6035	-0.0	-0.0	-0.0	-13.26388168334961	-0.5594860315322876	-1031.9769287109375	-0.0	-0.0	-0.0	-0.0	-0.0	-0.0	-0.0	-0.0	-0.0	-0.0	-0.0	-0.0
0.604	-0.0	-0.0	-0.0	-11.662142753601074	0.7334824800491333	-1028.572509765625	-0.0	-0.0	-0.0	-0.0	-0.0	-0.0	-0.0	-0.0	-0.0	-0.0	-0.0	-0.0
0.6045	-0.0	-0.0	-0.0	-10.190059661865234	2.0700430870056152	-1023.2745361328124	-0.0	-0.0	-0.0	-0.0	-0.0	-0.0	-0.0	-0.0	-0.0	-0.0	-0.0	-0.0
0.605	-0.0	-0.0	-0.0	-9.319220542907717	3.50869083404541	-1018.4761352539062	-0.0	-0.0	-0.0	-0.0	-0.0	-0.0	-0.0	-0.0	-0.0	-0.0	-0.0	-0.0
0.6055	-0.0	-0.0	-0.0	-7.944300651550293	4.358267784118652	-1013.9615478515624	-0.0	-0.0	-0.0	-0.0	-0.0	-0.0	-0.0	-0.0	-0.0	-0.0	-0.0	-0.0
0.606	-0.0	-0.0	-0.0	-7.287103176116943	4.874038696289063	-1006.8972778320312	-0.0	-0.0	-0.0	-0.0	-0.0	-0.0	-0.0	-0.0	-0.0	-0.0	-0.0	-0.0
0.6065	-0.0	-0.0	-0.0	-5.7656569480896	5.230626583099365	-1004.3519897460938	-0.0	-0.0	-0.0	-0.0	-0.0	-0.0	-0.0	-0.0	-0.0	-0.0	-0.0	-0.0
0.607	-0.0	-0.0	-0.0	-5.380650043487549	6.0608673095703125	-1000.20556640625	-0.0	-0.0	-0.0	-0.0	-0.0	-0.0	-0.0	-0.0	-0.0	-0.0	-0.0	-0.0
0.6075	-0.0	-0.0	-0.0	-5.118283748626709	5.592594623565674	-998.0233154296876	-0.0	-0.0	-0.0	-0.0	-0.0	-0.0	-0.0	-0.0	-0.0	-0.0	-0.0	-0.0
0.608	-0.0	-0.0	-0.0	-3.830511569976807	5.475890159606934	-995.9893188476562	-0.0	-0.0	-0.0	-0.0	-0.0	-0.0	-0.0	-0.0	-0.0	-0.0	-0.0	-0.0
0.6085	-0.0	-0.0	-0.0	-3.702594041824341	3.9552509784698486	-994.2015380859376	-0.0	-0.0	-0.0	-0.0	-0.0	-0.0	-0.0	-0.0	-0.0	-0.0	-0.0	-0.0
0.609	-0.0	-0.0	-0.0	-2.854736328125	3.2205028533935547	-992.7022705078124	-0.0	-0.0	-0.0	-0.0	-0.0	-0.0	-0.0	-0.0	-0.0	-0.0	-0.0	-0.0
0.6095	-0.0	-0.0	-0.0	-2.476328134536743	2.139129638671875	-991.8388671875	-0.0	-0.0	-0.0	-0.0	-0.0	-0.0	-0.0	-0.0	-0.0	-0.0	-0.0	-0.0
0.61	-0.0	-0.0	-0.0	-1.934993386268616	0.8021736145019531	-994.0671997070312	-0.0	-0.0	-0.0	-0.0	-0.0	-0.0	-0.0	-0.0	-0.0	-0.0	-0.0	-0.0
0.6105	-0.0	-0.0	-0.0	-1.763136625289917	-0.691988468170166	-994.6381225585938	-0.0	-0.0	-0.0	-0.0	-0.0	-0.0	-0.0	-0.0	-0.0	-0.0	-0.0	-0.0
0.611	-0.0	-0.0	-0.0	-1.3589398860931396	-0.3290480971336365	-995.8319702148438	-0.0	-0.0	-0.0	-0.0	-0.0	-0.0	-0.0	-0.0	-0.0	-0.0	-0.0	-0.0
0.6115	-0.0	-0.0	-0.0	-1.3999264240264893	-0.287928968667984	-995.83154296875	-0.0	-0.0	-0.0	-0.0	-0.0	-0.0	-0.0	-0.0	-0.0	-0.0	-0.0	-0.0
0.612	-0.0	-0.0	-0.0	-0.5900007486343384	-0.4051586985588074	-995.8590698242188	-0.0	-0.0	-0.0	-0.0	-0.0	-0.0	-0.0	-0.0	-0.0	-0.0	-0.0	-0.0
0.6125	-0.0	-0.0	-0.0	0.0691708996891975	0.252858430147171	-996.1836547851562	-0.0	-0.0	-0.0	-0.0	-0.0	-0.0	-0.0	-0.0	-0.0	-0.0	-0.0	-0.0
0.613	-0.0	-0.0	-0.0	-0.3691427111625671	1.6811879873275757	-997.0269775390624	-0.0	-0.0	-0.0	-0.0	-0.0	-0.0	-0.0	-0.0	-0.0	-0.0	-0.0	-0.0
0.6135	-0.0	-0.0	-0.0	0.2055941373109817	2.859857082366944	-998.516845703125	-0.0	-0.0	-0.0	-0.0	-0.0	-0.0	-0.0	-0.0	-0.0	-0.0	-0.0	-0.0
0.614	-0.0	-0.0	-0.0	0.9078267812728882	4.003014087677002	-998.1626586914062	-0.0	-0.0	-0.0	-0.0	-0.0	-0.0	-0.0	-0.0	-0.0	-0.0	-0.0	-0.0
0.6145	-0.0	-0.0	-0.0	1.0895155668258667	5.126430988311768	-997.776611328125	-0.0	-0.0	-0.0	-0.0	-0.0	-0.0	-0.0	-0.0	-0.0	-0.0	-0.0	-0.0
0.615	-0.0	-0.0	-0.0	1.0622470378875732	6.684780120849609	-997.840087890625	-0.0	-0.0	-0.0	-0.0	-0.0	-0.0	-0.0	-0.0	-0.0	-0.0	-0.0	-0.0
0.6155	-0.0	-0.0	-0.0	2.157948732376098	8.770116806030273	-998.686279296875	-0.0	-0.0	-0.0	-0.0	-0.0	-0.0	-0.0	-0.0	-0.0	-0.0	-0.0	-0.0
0.616	-0.0	-0.0	-0.0	3.2652742862701416	10.865249633789062	-998.1551513671876	-0.0	-0.0	-0.0	-0.0	-0.0	-0.0	-0.0	-0.0	-0.0	-0.0	-0.0	-0.0
